<svg width="398" height="408" viewBox="0 0 398 408" fill="none" xmlns="http://www.w3.org/2000/svg">
<g id="undraw_compose_music_re_wpiw 1" clip-path="url(#clip0_662_2)">
<g id="Group">
<path id="Vector" d="M172.279 400.518L162.935 400.517L158.489 364.473L172.281 364.474L172.279 400.518Z" fill="#A0616A"/>
<path id="Vector_2" d="M140.264 400.306C139.973 400.796 139.819 402.377 139.819 402.947C139.819 404.699 141.239 406.119 142.991 406.119H171.93C173.125 406.119 174.093 405.15 174.093 403.955V402.75C174.093 402.75 175.525 399.129 172.578 394.666C172.578 394.666 168.914 398.161 163.441 392.687L161.827 389.763L150.142 398.308L143.666 399.105C142.249 399.28 140.993 399.078 140.264 400.306Z" fill="#2F2E41"/>
</g>
<g id="Group_2">
<path id="Vector_3" d="M130.411 400.518L121.066 400.517L116.621 364.473L130.413 364.474L130.411 400.518Z" fill="#A0616A"/>
<path id="Vector_4" d="M98.3957 400.306C98.1047 400.796 97.9512 402.377 97.9512 402.947C97.9512 404.699 99.3711 406.119 101.123 406.119H130.062C131.257 406.119 132.225 405.15 132.225 403.955V402.75C132.225 402.75 133.657 399.129 130.709 394.666C130.709 394.666 127.046 398.161 121.573 392.687L119.958 389.763L108.274 398.308L101.798 399.105C100.381 399.28 99.1245 399.078 98.3957 400.306Z" fill="#2F2E41"/>
</g>
<path id="Vector_5" d="M173.081 174.391L181.781 196.685L174.985 374.761H155.953L138.826 214.085L134.747 375.305L116.26 374.761L96.1416 195.869L109.463 179.829L173.081 174.391Z" fill="#2F2E41"/>
<path id="Vector_6" d="M132.029 47.9707L154.867 46.3395L161.935 57.7581L183.141 63.7393L175.257 118.929L183.685 201.307C183.685 201.307 153.236 196.957 151.061 205.657C148.886 214.356 95.5986 196.957 95.5986 196.957L113.814 140.679L112.183 96.6358L107.289 71.0798L129.583 60.7487L132.029 47.9707Z" fill="#E6E6E6"/>
<path id="Vector_7" d="M121.698 64.283C121.698 64.283 103.5 64.0112 101.044 71.6236C98.5889 79.236 90.4327 131.979 90.4327 131.979L84.1797 155.088L112.183 141.223L106.201 131.994L125.776 94.4608L121.698 64.283Z" fill="#E6E6E6"/>
<path id="Vector_8" d="M132.831 148.835C135.84 148.838 138.637 147.104 139.807 144.332C140.692 142.235 140.608 140.224 139.946 138.499C140.159 138.411 140.37 138.319 140.588 138.241C140.268 138.111 139.957 137.964 139.645 137.818C138.562 135.657 136.483 134.089 134.008 133.709C130.942 130.424 129.058 126.024 129.038 121.181C128.998 111.199 137.095 102.862 147.073 102.622C147.152 102.621 147.23 102.619 147.309 102.618C151.777 102.567 155.831 105.066 158.094 108.919C159.415 111.167 161.857 112.676 164.653 112.676C166.794 112.676 168.726 111.791 170.107 110.367C173.115 107.265 176.882 104.957 181.144 104.248C183.944 103.783 186.841 103.608 189.806 103.755C210.098 104.764 227.557 122.749 227.99 143.062C228.473 165.687 210.277 184.179 187.762 184.179C176.047 184.179 165.507 179.169 158.155 171.177C154.892 167.629 150.318 165.641 145.498 165.691C145.449 165.691 145.4 165.691 145.35 165.691C137.543 165.691 131.213 159.362 131.213 151.554C131.213 151.121 131.235 150.693 131.275 150.271C131.35 149.481 132.037 148.834 132.831 148.835Z" fill="#EC7837"/>
<g id="Group_3">
<path id="Vector_9" d="M395.816 299.392C394.828 297.727 390.556 299.51 389.77 297.999C388.987 296.493 392.957 294.198 395.225 288.956C395.634 288.011 398.212 282.053 396.304 280.215C392.687 276.731 376.136 291.109 370.344 286.404C369.073 285.372 368.185 283.31 364.338 279.963C362.807 278.632 361.882 278.031 360.986 278.254C359.715 278.572 359.615 280.273 358.252 283.617C356.208 288.632 354.999 288.329 353.809 292.331C352.925 295.301 353.127 297.028 352.087 297.365C350.615 297.841 349.26 294.69 347.394 294.972C345.491 295.26 344.34 298.929 343.976 301.676C343.294 306.83 345.187 310.231 346.236 313.808C347.376 317.694 348.053 323.605 345.42 331.972L319.359 405.399C325.113 390.332 341.772 349.03 348.772 333.681C350.792 329.251 353.024 324.756 357.605 322.983C362.016 321.275 368.074 322.295 375.796 320.434C376.698 320.217 379.201 319.58 379.516 318.108C379.777 316.891 378.305 316.212 378.531 315.072C378.834 313.543 381.729 313.524 385.287 311.76C387.796 310.516 389.359 309.037 390.703 307.764C391.108 307.381 397.131 301.609 395.816 299.392Z" fill="#F2F2F2"/>
<path id="Vector_10" d="M293.286 338.047C292.183 338.051 291.826 340.663 290.857 340.612C289.892 340.562 289.911 337.951 287.993 335.326C287.647 334.852 285.467 331.868 284.014 332.274C281.261 333.044 283.542 345.316 279.562 346.801C278.688 347.127 277.42 346.968 274.667 347.891C273.572 348.258 273.01 348.539 272.862 349.043C272.651 349.758 273.456 350.298 274.705 351.932C276.577 354.382 276.079 354.888 277.7 356.627C278.902 357.918 279.808 358.317 279.673 358.925C279.482 359.785 277.545 359.54 277.145 360.537C276.737 361.555 278.206 363.178 279.449 364.149C281.782 365.971 283.998 366.023 286.056 366.54C288.292 367.102 291.388 368.475 294.735 372.182L323.254 406.159C317.519 398.988 302.054 378.894 296.541 371.03C294.95 368.76 293.388 366.368 293.839 363.608C294.274 360.95 296.522 358.271 297.837 353.944C297.991 353.439 298.4 352.026 297.769 351.447C297.246 350.968 296.488 351.495 295.994 351.055C295.331 350.465 296.157 349.038 296.318 346.783C296.431 345.193 296.156 343.999 295.919 342.972C295.848 342.663 294.753 338.041 293.286 338.047Z" fill="#F2F2F2"/>
<path id="Vector_11" d="M315.278 342.984L314.614 337.055L314.918 336.605C316.322 334.527 317.038 332.497 317.046 330.57C317.048 330.264 317.033 329.958 317.019 329.646C316.962 328.409 316.89 326.872 317.692 325.08C318.141 324.08 319.404 321.767 321.302 322.054C321.813 322.125 322.199 322.36 322.493 322.635C322.536 322.566 322.58 322.497 322.627 322.423C323.218 321.521 323.687 321.135 324.137 320.762C324.484 320.476 324.842 320.181 325.403 319.483C325.649 319.176 325.841 318.907 326.003 318.681C326.494 317.997 327.135 317.181 328.266 317.195C329.474 317.253 330.107 318.252 330.526 318.913C331.275 320.092 331.614 320.943 331.839 321.507C331.92 321.713 332.013 321.945 332.06 322.016C332.45 322.589 335.615 322.054 336.807 321.859C339.485 321.412 341.803 321.026 342.757 322.715C343.442 323.923 342.933 325.52 341.201 327.59C340.662 328.234 340.088 328.724 339.578 329.108C340.001 329.359 340.378 329.746 340.532 330.353C340.892 331.79 339.657 333.23 336.861 334.639C336.167 334.991 335.232 335.46 333.923 335.686C333.306 335.792 332.75 335.818 332.275 335.832C332.265 336.107 332.201 336.405 332.033 336.711C331.542 337.613 330.52 338.042 328.98 337.939C327.285 337.851 325.89 337.527 324.659 337.244C323.584 336.998 322.657 336.789 321.93 336.837C320.582 336.946 319.543 338.025 318.323 339.425L315.278 342.984Z" fill="#F2F2F2"/>
<path id="Vector_12" d="M318.359 307.683L312.792 309.829L312.281 309.65C309.914 308.818 307.769 308.641 305.903 309.121C305.606 309.198 305.314 309.289 305.016 309.382C303.834 309.751 302.365 310.21 300.428 309.89C299.348 309.708 296.79 309.074 296.585 307.165C296.525 306.653 296.654 306.219 296.845 305.866C296.768 305.842 296.69 305.816 296.606 305.789C295.584 305.446 295.091 305.092 294.617 304.75C294.252 304.487 293.876 304.216 293.058 303.85C292.7 303.69 292.391 303.573 292.131 303.474C291.344 303.172 290.392 302.759 290.12 301.661C289.868 300.478 290.674 299.613 291.208 299.039C292.159 298.016 292.895 297.472 293.384 297.112C293.562 296.981 293.763 296.832 293.82 296.768C294.275 296.246 292.955 293.321 292.464 292.217C291.353 289.739 290.391 287.596 291.783 286.244C292.778 285.275 294.452 285.362 296.893 286.512C297.653 286.871 298.272 287.302 298.773 287.697C298.909 287.225 299.187 286.761 299.736 286.459C301.034 285.746 302.74 286.575 304.812 288.922C305.329 289.505 306.02 290.29 306.571 291.499C306.83 292.069 306.996 292.6 307.13 293.056C307.399 292.996 307.703 292.983 308.042 293.067C309.038 293.313 309.713 294.193 310.004 295.709C310.348 297.371 310.389 298.803 310.427 300.065C310.462 301.168 310.495 302.116 310.726 302.808C311.173 304.084 312.481 304.816 314.144 305.64L318.359 307.683Z" fill="#F2F2F2"/>
<path id="Vector_13" d="M315.278 290.216L314.614 284.287L314.918 283.837C316.322 281.759 317.038 279.729 317.046 277.803C317.048 277.496 317.033 277.19 317.019 276.878C316.962 275.641 316.89 274.104 317.692 272.312C318.141 271.312 319.404 268.999 321.302 269.286C321.813 269.357 322.199 269.592 322.493 269.867C322.536 269.798 322.58 269.729 322.627 269.655C323.218 268.753 323.687 268.367 324.137 267.994C324.484 267.708 324.842 267.413 325.403 266.715C325.649 266.408 325.841 266.139 326.003 265.913C326.494 265.229 327.135 264.413 328.266 264.427C329.474 264.485 330.107 265.484 330.526 266.145C331.275 267.325 331.614 268.175 331.839 268.739C331.92 268.945 332.013 269.177 332.06 269.248C332.45 269.821 335.615 269.286 336.807 269.091C339.485 268.644 341.803 268.258 342.757 269.947C343.442 271.155 342.933 272.752 341.201 274.822C340.662 275.466 340.088 275.956 339.578 276.34C340.001 276.592 340.378 276.978 340.532 277.585C340.892 279.022 339.657 280.462 336.861 281.871C336.167 282.223 335.232 282.692 333.923 282.918C333.306 283.024 332.75 283.05 332.275 283.064C332.265 283.339 332.201 283.637 332.033 283.943C331.542 284.845 330.52 285.275 328.98 285.172C327.285 285.083 325.89 284.759 324.659 284.476C323.584 284.23 322.657 284.021 321.93 284.069C320.582 284.178 319.543 285.257 318.323 286.657L315.278 290.216Z" fill="#F2F2F2"/>
<path id="Vector_14" d="M321.344 405.302L320.102 404.523L318.653 404.689C318.63 404.555 318.552 404.246 318.433 403.762C317.785 401.111 315.808 393.043 314.159 380.338C313.008 371.469 312.357 362.351 312.222 353.233C312.087 344.1 312.52 337.186 312.866 331.63C313.128 327.438 313.446 323.448 313.758 319.56C314.588 309.174 315.371 299.363 314.789 288.501C314.66 286.076 314.389 281.029 311.44 275.658C309.73 272.544 307.374 269.778 304.437 267.442L306.263 265.146C309.505 267.728 312.112 270.791 314.011 274.25C317.281 280.204 317.576 285.704 317.717 288.346C318.31 299.4 317.518 309.305 316.679 319.792C316.37 323.665 316.052 327.639 315.792 331.813C315.448 337.318 315.02 344.172 315.154 353.187C315.285 362.196 315.929 371.203 317.065 379.96C318.693 392.505 320.642 400.452 321.281 403.063C321.622 404.458 321.694 404.75 321.344 405.302Z" fill="#F2F2F2"/>
<path id="Vector_15" d="M299.06 272.1C298.94 272.1 298.818 272.097 298.695 272.088C296.199 271.954 293.887 270.459 291.823 267.648C290.855 266.325 290.36 264.817 289.372 261.808C289.219 261.344 288.475 258.991 288.022 255.753C287.726 253.637 287.763 252.753 288.183 251.971C288.648 251.101 289.401 250.494 290.248 250.085C290.211 249.804 290.241 249.515 290.363 249.22C290.862 247.998 292.191 248.158 292.909 248.235C293.273 248.281 293.727 248.341 294.216 248.315C294.986 248.278 295.4 248.049 296.027 247.706C296.627 247.376 297.372 246.967 298.479 246.741C300.66 246.286 302.488 246.904 303.091 247.107C306.262 248.164 307.825 250.628 309.634 253.483C309.995 254.055 311.233 256.139 312.05 258.997C312.64 261.058 312.557 261.974 312.38 262.655C312.019 264.055 311.167 264.857 309.004 266.626C306.745 268.478 305.612 269.406 304.638 269.97C302.372 271.278 300.95 272.1 299.06 272.1Z" fill="#F2F2F2"/>
</g>
<path id="Vector_16" d="M199.725 136.873L64.3328 111.317L63.7891 121.104L198.094 153.185L199.725 136.873Z" fill="#EC7837"/>
<path id="Vector_17" d="M65.9647 112.948L64.3335 111.317C64.3335 111.317 57.2648 108.054 57.2648 107.511C57.2648 107.17 46.8268 103.635 39.0174 101.037C34.6559 99.5863 30.05 102.457 29.4289 107.011L28.4503 114.188C27.8651 118.479 31.1029 122.342 35.4303 122.515L54.5461 123.279L63.7897 121.104L65.9647 112.948Z" fill="#EC7837"/>
<path id="Vector_18" d="M199.454 139.863L199.777 138.509L64.2978 112.608L64.0615 114.307L199.454 139.863Z" fill="#3F3D56"/>
<path id="Vector_19" d="M199.143 142.436L199.454 140.951L64.1505 115.289L64.0615 117.026L199.143 142.436Z" fill="#3F3D56"/>
<path id="Vector_20" d="M198.833 145.518L198.91 143.126L64.0439 117.241L64.0612 118.657L198.833 145.518Z" fill="#3F3D56"/>
<path id="Vector_21" d="M198.471 149.098L198.366 146.932L63.8472 119.193L63.7314 119.724L198.471 149.098Z" fill="#3F3D56"/>
<path id="Vector_22" d="M198.469 151.269L198.366 149.651L64.0492 120.09L63.9287 120.62L198.469 151.269Z" fill="#3F3D56"/>
<path id="Vector_23" d="M120.671 60.8162L127.407 57.0859L130.33 116.754L129.311 124.095C129.311 124.095 112.303 77.1961 120.671 60.8162Z" fill="#3F3D56"/>
<path id="Vector_24" d="M143.719 42.2614C153.029 42.2614 160.575 34.7147 160.575 25.4053C160.575 16.096 153.029 8.54923 143.719 8.54923C134.41 8.54923 126.863 16.096 126.863 25.4053C126.863 34.7147 134.41 42.2614 143.719 42.2614Z" fill="#A0616A"/>
<path id="Vector_25" d="M129.311 35.4646L133.341 38.6815L128.767 21.3272C128.767 21.3272 141.545 21.0553 142.633 13.9867C142.633 13.9867 152.692 13.7148 155.411 13.7148C158.129 13.7148 159.356 31.7042 159.356 31.7042C159.356 31.7042 164.654 16.9773 159.217 9.36485C153.779 1.75243 155.682 6.37426 154.595 3.65554C153.507 0.93682 142.361 -1.56355 135.292 1.20869C128.223 3.98093 127.951 7.93271 125.776 7.9691C123.602 8.00549 115.989 18.8804 123.058 27.5803C130.126 36.2802 129.311 35.4646 129.311 35.4646Z" fill="#2F2E41"/>
<g id="HandLeft">
<path id="Vector_26" d="M181.739 146.434C183.617 144.7 184.948 142.686 185.64 140.74L204.574 125.354L196.988 116.558L178.598 133.113C176.604 133.648 174.49 134.813 172.612 136.547C168.321 140.508 166.887 145.932 169.407 148.662C171.928 151.393 177.449 150.395 181.739 146.434Z" fill="#A0616A"/>
</g>
<g id="HandRight">
<path id="Vector_27" d="M107.025 125.555C105.542 127.638 104.653 129.882 104.375 131.928L89 150.871L98.2279 157.924L112.831 137.949C114.674 137.017 116.504 135.442 117.986 133.36C121.373 128.603 121.665 123 118.638 120.845C115.611 118.69 110.411 120.799 107.025 125.555Z" fill="#A0616A"/>
</g>
<path id="Vector_28" d="M174.441 67.2736C174.441 67.2736 179.335 59.1175 184.229 64.0111C188.101 67.8835 209.337 92.5245 218.033 102.641C220.431 105.431 221.747 108.985 221.747 112.664C221.747 118.354 218.605 123.58 213.58 126.248L186.404 140.679L178.791 129.26L202.172 112.404L166.285 92.8296L174.441 67.2736Z" fill="#E6E6E6"/>
<path id="Vector_29" d="M88.5082 142.436L84.1797 155.088L96.6858 161.613L106.201 155.088L112.183 141.223L94.5108 136.057" fill="#E6E6E6"/>
<g id="Note1">
<path id="Vector_30" d="M225.771 46.2431L218.96 19L214.824 19.9719L220.152 41.2811C218.514 40.5392 216.692 40.1128 214.764 40.1128C207.715 40.1128 202 45.6538 202 52.4889C202 59.3241 207.715 64.8651 214.764 64.8651C221.814 64.8651 227.529 59.324 227.529 52.4889C227.529 50.2078 226.881 48.0781 225.771 46.2431Z" fill="#6C63FF"/>
</g>
<g id="Note2">
<path id="Vector_31" d="M290.69 21.1674L249.612 32.326L255.589 58.9811C253.656 57.6842 251.331 56.9262 248.829 56.9262C242.12 56.9262 236.681 62.3652 236.681 69.0746C236.681 75.7839 242.12 81.2229 248.829 81.2229C255.538 81.2229 260.977 75.7839 260.977 69.0746C260.977 66.7426 260.309 64.5718 259.17 62.7218L254.431 41.5888L289.869 30.4472L293.11 46.1892C291.165 44.8659 288.816 44.091 286.286 44.091C279.577 44.091 274.138 49.53 274.138 56.2394C274.138 62.9487 279.577 68.3877 286.286 68.3877C292.996 68.3877 298.435 62.9487 298.435 56.2394C298.435 53.8825 297.753 51.6899 296.591 49.8273L290.69 21.1674Z" fill="#6C63FF"/>
</g>
<g id="Note3">
<path id="Vector_32" d="M330.978 46.0842C324.339 46.0842 318.956 51.4667 318.956 58.1064C318.956 59.9834 319.399 61.7527 320.166 63.3355L327.027 91.6395L330.922 90.6954L325.629 68.8611C327.242 69.665 329.054 70.1286 330.978 70.1286C337.618 70.1286 343 64.7461 343 58.1064C343 51.4668 337.618 46.0842 330.978 46.0842Z" fill="#6C63FF"/>
</g>
<g id="Note4">
<path id="Vector_33" d="M379.903 108.466L373.091 81.2229L368.956 82.1948L374.284 103.504C372.645 102.762 370.824 102.336 368.896 102.336C361.847 102.336 356.132 107.877 356.132 114.712C356.132 121.547 361.847 127.088 368.896 127.088C375.946 127.088 381.661 121.547 381.661 114.712C381.661 112.431 381.013 110.301 379.903 108.466Z" fill="#6C63FF"/>
</g>
<path id="Vector_34" d="M397.725 406.287C397.725 406.751 397.349 407.127 396.885 407.127H0V405.447H396.885C397.349 405.447 397.725 405.823 397.725 406.287Z" fill="#E6E6E6"/>
</g>
<defs>
<clipPath id="clip0_662_2">
<rect width="397.725" height="407.127" fill="white"/>
</clipPath>
</defs>
</svg>
