<svg width="246" height="281" viewBox="0 0 246 281" fill="none" xmlns="http://www.w3.org/2000/svg">
<g id="Frame 4">
<g id="Circle">
<path id="Vector" d="M135.769 229.333L135.633 227.337C139.534 227.073 143.446 226.539 147.259 225.748L147.664 227.707C143.762 228.515 139.76 229.062 135.769 229.333ZM123.749 229.156C119.713 228.792 115.724 228.214 111.893 227.438L112.29 225.477C116.05 226.24 119.966 226.807 123.929 227.164L123.749 229.156ZM159.228 224.469L158.557 222.584C162.233 221.277 165.853 219.701 169.317 217.901L170.239 219.676C166.694 221.518 162.989 223.13 159.228 224.469ZM100.306 224.343C96.4751 223.058 92.7402 221.524 89.2056 219.781L90.0893 217.988C93.5444 219.69 97.1953 221.191 100.942 222.447L100.306 224.343ZM78.8369 213.721C75.5352 211.457 72.3774 208.934 69.4521 206.22L70.8125 204.753C73.666 207.401 76.7466 209.863 79.9678 212.071L78.8369 213.721ZM180.487 213.428L179.332 211.795C182.517 209.541 185.578 207.047 188.428 204.383L189.793 205.844C186.877 208.57 183.746 211.122 180.487 213.428ZM61.2641 197.412C58.7759 194.306 56.4819 190.975 54.4468 187.512L56.1714 186.499C58.1577 189.879 60.3965 193.13 62.8247 196.162L61.2641 197.412ZM197.991 197.071L196.44 195.807C198.907 192.777 201.187 189.551 203.216 186.221L204.924 187.262C202.848 190.669 200.516 193.969 197.991 197.071ZM49.0981 176.757C47.5801 173.089 46.2896 169.261 45.2627 165.378L47.1963 164.867C48.2002 168.664 49.4619 172.407 50.9458 175.992L49.0981 176.757ZM210.458 176.601L208.624 175.802C210.181 172.224 211.504 168.501 212.556 164.738L214.481 165.277C213.405 169.127 212.052 172.938 210.458 176.601ZM42.9556 153.596C42.4443 149.644 42.1831 145.614 42.1797 141.619L44.1797 141.617C44.1831 145.528 44.4385 149.472 44.939 153.34L42.9556 153.596ZM216.912 153.517L214.931 153.248C215.455 149.393 215.721 145.454 215.721 141.539L215.72 141.358H217.72L217.721 141.531C217.721 145.543 217.449 149.574 216.912 153.517ZM44.9189 129.892L42.9346 129.638C43.4419 125.665 44.2109 121.699 45.2207 117.853L47.1553 118.361C46.1675 122.123 45.415 126.003 44.9189 129.892ZM214.907 129.653C214.372 125.784 213.564 121.919 212.508 118.166L214.433 117.624C215.515 121.464 216.34 125.419 216.888 129.379L214.907 129.653ZM50.8843 107.231L49.0347 106.469C50.5645 102.755 52.3565 99.1347 54.3604 95.7094L56.0869 96.7192C54.1289 100.065 52.3784 103.602 50.8843 107.231ZM208.556 107.118C206.996 103.549 205.171 100.051 203.134 96.7202L204.84 95.6762C206.925 99.0849 208.792 102.665 210.389 106.317L208.556 107.118ZM196.344 87.1528C193.875 84.1323 191.175 81.2514 188.318 78.5908L189.681 77.1269C192.604 79.8496 195.367 82.7968 197.893 85.8872L196.344 87.1528ZM62.7183 87.0478L61.1548 85.8007C63.6533 82.6684 66.3994 79.7016 69.3159 76.9824L70.6802 78.4453C67.8345 81.0981 65.1558 83.9921 62.7183 87.0478ZM179.205 71.1928C176.01 68.9414 172.634 66.8916 169.17 65.1001L170.089 63.3237C173.633 65.1567 177.088 67.2543 180.357 69.5581L179.205 71.1928ZM79.8184 71.1074L78.6836 69.4599C81.9507 67.2099 85.4346 65.1635 89.0386 63.3769L89.9273 65.1689C86.4077 66.913 83.0069 68.9111 79.8184 71.1074ZM100.77 60.686L100.13 58.791C103.844 57.538 107.741 56.4897 111.711 55.6762L112.113 57.6352C108.223 58.4326 104.406 59.4589 100.77 60.686ZM158.396 60.435C154.717 59.1337 150.911 58.0766 147.083 57.2915L147.484 55.3325C151.402 56.1357 155.298 57.2177 159.063 58.5493L158.396 60.435ZM123.748 55.9296L123.565 53.9384C125.567 53.7548 127.625 53.6206 129.682 53.5395C131.628 53.5165 133.646 53.603 135.584 53.7304L135.453 55.7265C133.558 55.6015 131.629 55.5385 129.722 55.5385C127.738 55.6176 125.715 55.75 123.748 55.9296Z" fill="#3F3D56"/>
<g id="Linkedln">
<path id="Vector_2" d="M63.1543 223.361C78.066 223.361 90.1543 211.272 90.1543 196.361C90.1543 181.449 78.066 169.361 63.1543 169.361C48.2426 169.361 36.1543 181.449 36.1543 196.361C36.1543 211.272 48.2426 223.361 63.1543 223.361Z" fill="#6C63FF"/>
<path id="Vector_3" d="M52.5879 187.308C52.5879 186.471 53.2827 185.794 54.1399 185.794H72.1699C73.0271 185.794 73.7219 186.471 73.7219 187.308V205.414C73.7219 206.25 73.0271 206.928 72.1699 206.928H54.1399C53.2827 206.928 52.5879 206.25 52.5879 205.414V187.308ZM59.117 203.486V193.942H55.9456V203.486H59.117ZM57.5319 192.639C58.6375 192.639 59.3257 191.907 59.3257 190.99C59.3059 190.054 58.6388 189.342 57.5531 189.342C56.4673 189.342 55.758 190.055 55.758 190.99C55.758 191.907 56.4462 192.639 57.5108 192.639H57.5319ZM64.0148 203.486V198.156C64.0148 197.871 64.0359 197.585 64.1205 197.382C64.349 196.813 64.8707 196.222 65.7478 196.222C66.8956 196.222 67.354 197.097 67.354 198.38V203.486H70.5254V198.012C70.5254 195.08 68.9615 193.716 66.8745 193.716C65.1917 193.716 64.4375 194.641 64.0148 195.292V195.325H63.9937L64.0148 195.292V193.942H60.8447C60.8843 194.838 60.8447 203.486 60.8447 203.486H64.0148Z" fill="white"/>
</g>
<g id="Meta">
<path id="Vector_4" d="M142.887 82C157.798 82 169.887 69.9117 169.887 55C169.887 40.0883 157.798 28 142.887 28C127.975 28 115.887 40.0883 115.887 55C115.887 69.9117 127.975 82 142.887 82Z" fill="#6C63FF"/>
<path id="Vector_5" fill-rule="evenodd" clip-rule="evenodd" d="M143.231 50.1087C144.708 48.1111 146.342 46.5385 148.43 46.5385C152.372 46.5385 155.62 51.5572 155.621 57.5324C155.621 61.1774 154.052 63.4615 151.233 63.4615C148.777 63.4615 147.421 62.0831 144.987 58.0115L143.925 56.224L143.738 55.9105C143.461 55.4425 143.179 54.9772 142.894 54.5145L141.019 57.8253C138.356 62.481 136.857 63.4615 134.775 63.4615C131.881 63.4615 130.152 61.2092 130.152 57.6375C130.152 51.9312 133.328 46.5385 137.471 46.5385C137.979 46.5385 138.466 46.6006 138.942 46.7327C139.435 46.8696 139.914 47.0829 140.395 47.3805C141.313 47.9519 142.232 48.8369 143.231 50.1087ZM145.644 53.6486C145.243 52.996 144.858 52.396 144.487 51.8452L144.478 51.8325C145.823 49.7553 146.934 48.7223 148.253 48.7223C150.996 48.7223 153.191 52.7605 153.191 57.7202C153.191 59.6112 152.57 60.7078 151.289 60.7078C150.058 60.7078 149.471 59.8961 147.134 56.1397L145.643 53.6486H145.644ZM137.866 49.3335C139.02 49.4927 140.07 50.3427 141.59 52.5185C140.713 53.8616 139.846 55.2108 138.988 56.5662C136.828 59.9502 136.081 60.7094 134.88 60.7094C133.643 60.7094 132.906 59.6239 132.906 57.6852C132.906 53.5436 134.972 49.3065 137.436 49.3065C137.581 49.3065 137.724 49.316 137.866 49.3351V49.3335Z" fill="white"/>
</g>
<g id="Twitter">
<path id="Vector_6" d="M56 124.707C70.9117 124.707 83 112.619 83 97.7075C83 82.7958 70.9117 70.7075 56 70.7075C41.0883 70.7075 29 82.7958 29 97.7075C29 112.619 41.0883 124.707 56 124.707Z" fill="#6C63FF"/>
<path id="Vector_7" d="M51.6434 107.232C60.4904 107.232 65.3299 99.9014 65.3299 93.5556C65.3299 93.3505 65.3299 93.1424 65.3211 92.9373C66.2633 92.2552 67.0765 91.4108 67.7226 90.4435C66.8425 90.8316 65.9098 91.0873 64.9548 91.2025C65.9607 90.6012 66.7141 89.6552 67.075 88.5402C66.1299 89.1001 65.0955 89.4931 64.0171 89.7021C62.1969 87.7637 59.15 87.6678 57.2115 89.4879C55.9597 90.6633 55.4286 92.4165 55.8178 94.0889C51.9501 93.895 48.3464 92.0689 45.9027 89.0648C44.6297 91.2635 45.2824 94.0729 47.3943 95.4853C46.6317 95.4594 45.8859 95.2546 45.217 94.8875V94.9534C45.2197 97.2415 46.8314 99.2119 49.0734 99.6684C48.6606 99.7822 48.2342 99.8389 47.806 99.8369C47.5042 99.8379 47.2029 99.8099 46.9064 99.7534C47.5366 101.712 49.3429 103.053 51.4002 103.09C49.6955 104.429 47.5898 105.155 45.4222 105.151C45.0402 105.153 44.6585 105.131 44.2793 105.085C46.4793 106.488 49.0343 107.233 51.6434 107.232Z" fill="white"/>
</g>
<g id="Instagram">
<path id="Vector_8" d="M153.207 253.021C168.119 253.021 180.207 240.932 180.207 226.021C180.207 211.109 168.119 199.021 153.207 199.021C138.295 199.021 126.207 211.109 126.207 226.021C126.207 240.932 138.295 253.021 153.207 253.021Z" fill="#6C63FF"/>
<path id="Vector_9" d="M153.207 214.505C150.082 214.505 149.689 214.52 148.461 214.574C147.233 214.632 146.397 214.825 145.664 215.11C144.896 215.399 144.2 215.852 143.625 216.438C143.039 217.014 142.585 217.71 142.296 218.478C142.011 219.209 141.817 220.047 141.76 221.271C141.706 222.501 141.691 222.893 141.691 226.022C141.691 229.149 141.706 229.54 141.76 230.768C141.818 231.994 142.011 232.831 142.296 233.563C142.591 234.32 142.984 234.962 143.625 235.603C144.264 236.243 144.906 236.638 145.663 236.932C146.397 237.217 147.232 237.411 148.458 237.467C149.687 237.522 150.079 237.536 153.207 237.536C156.335 237.536 156.725 237.522 157.954 237.467C159.179 237.409 160.018 237.217 160.751 236.932C161.519 236.642 162.215 236.189 162.789 235.603C163.43 234.962 163.823 234.32 164.118 233.563C164.401 232.831 164.596 231.994 164.653 230.768C164.708 229.54 164.722 229.149 164.722 226.021C164.722 222.893 164.708 222.501 164.653 221.272C164.596 220.047 164.401 219.209 164.118 218.478C163.828 217.71 163.375 217.014 162.789 216.438C162.214 215.852 161.518 215.399 160.75 215.11C160.015 214.825 159.178 214.63 157.953 214.574C156.723 214.52 156.333 214.505 153.204 214.505H153.207ZM152.175 216.581H153.208C156.283 216.581 156.647 216.591 157.861 216.647C158.983 216.697 159.594 216.886 160 217.043C160.536 217.252 160.921 217.502 161.324 217.905C161.727 218.308 161.976 218.691 162.185 219.229C162.343 219.634 162.53 220.244 162.58 221.367C162.637 222.58 162.648 222.945 162.648 226.018C162.648 229.091 162.637 229.457 162.58 230.67C162.53 231.793 162.342 232.402 162.185 232.808C162 233.308 161.705 233.76 161.322 234.13C160.919 234.533 160.536 234.782 159.998 234.991C159.595 235.149 158.985 235.337 157.861 235.388C156.647 235.443 156.283 235.456 153.208 235.456C150.134 235.456 149.768 235.443 148.555 235.388C147.432 235.337 146.823 235.149 146.417 234.991C145.917 234.807 145.464 234.513 145.093 234.13C144.71 233.759 144.414 233.307 144.229 232.806C144.072 232.402 143.884 231.791 143.833 230.669C143.779 229.455 143.767 229.091 143.767 226.015C143.767 222.94 143.779 222.577 143.833 221.364C143.885 220.241 144.072 219.631 144.231 219.225C144.439 218.688 144.69 218.304 145.093 217.901C145.496 217.498 145.879 217.249 146.417 217.04C146.823 216.882 147.432 216.695 148.555 216.643C149.617 216.594 150.029 216.579 152.175 216.578L152.175 216.581ZM159.355 218.492C158.592 218.492 157.973 219.111 157.973 219.874C157.973 220.637 158.592 221.256 159.355 221.256C160.118 221.256 160.737 220.637 160.737 219.874C160.737 219.111 160.118 218.492 159.355 218.492ZM153.208 220.107C149.942 220.056 147.253 222.663 147.202 225.929C147.151 229.195 149.758 231.884 153.024 231.935C153.085 231.936 153.147 231.936 153.208 231.935C156.474 231.884 159.081 229.195 159.03 225.929C158.98 222.735 156.403 220.157 153.208 220.107ZM153.208 222.182C155.329 222.181 157.048 223.899 157.049 226.019C157.05 228.139 155.332 229.859 153.212 229.86H153.208C151.088 229.86 149.369 228.141 149.369 226.021C149.369 223.9 151.088 222.182 153.208 222.182Z" fill="white"/>
</g>
</g>
</g>
</svg>
