<svg width="548" height="438" viewBox="0 0 548 438" fill="none" xmlns="http://www.w3.org/2000/svg">
<g id="Frame 3">
<g id="Group">
<path id="Vector" d="M275.305 227.611C270.452 232.183 264.159 233.386 261.249 230.298C258.339 227.209 259.915 220.999 264.768 216.427C266.892 214.425 269.293 213.069 271.564 212.436L292.372 193.32L301.135 203.275L279.693 221.064C278.926 223.294 277.429 225.609 275.305 227.611Z" fill="#FFB6B6"/>
<g id="Group_2">
<path id="Vector_2" d="M384.773 424.337L374.742 424.336L369.971 385.646L384.775 385.647L384.773 424.337Z" fill="#FFB6B6"/>
<path id="Vector_3" d="M350.407 424.109C350.094 424.635 349.93 426.333 349.93 426.945C349.93 428.825 351.454 430.349 353.334 430.349H384.398C385.68 430.349 386.72 429.309 386.72 428.027V426.733C386.72 426.733 388.257 422.846 385.093 418.056C385.093 418.056 381.161 421.807 375.285 415.931L373.553 412.792L361.01 421.965L354.059 422.821C352.538 423.008 351.189 422.792 350.407 424.109Z" fill="#2F2E41"/>
</g>
<g id="Group_3">
<path id="Vector_4" d="M455.142 418.639L445.28 420.47L433.523 383.302L448.079 380.6L455.142 418.639Z" fill="#FFB6B6"/>
<path id="Vector_5" d="M421.312 424.691C421.101 425.265 421.249 426.964 421.361 427.566C421.704 429.414 423.481 430.635 425.329 430.291L455.871 424.619C457.132 424.385 457.964 423.173 457.73 421.911L457.494 420.64C457.494 420.64 458.295 416.538 454.309 412.405C454.309 412.405 451.128 416.811 444.279 412.108L442.002 409.338L431.346 420.646L424.667 422.757C423.206 423.219 421.84 423.253 421.312 424.691Z" fill="#2F2E41"/>
</g>
<path id="Vector_6" d="M430.564 233.131L455.271 398.554L432.271 401.554L392.271 270.554L387.271 405.554H365.833C365.833 405.554 347.318 256.554 352.794 238.554C358.27 220.554 430.564 233.131 430.564 233.131Z" fill="#2F2E41"/>
<path id="Vector_7" d="M377.27 100.554H401.27L404.77 109.054C404.77 109.054 418.77 117.054 418.77 120.054C418.77 123.054 427.27 198.554 427.27 198.554L431.77 240.054C431.77 240.054 379.27 266.554 353.27 239.554L358.27 193.554C358.27 193.554 354.27 121.554 356.27 118.554C358.27 115.554 373.27 108.554 373.27 108.554L377.27 100.554Z" fill="#6C63FF"/>
<path id="Vector_8" d="M369.764 113.454C369.764 113.454 377.078 124.507 374.77 129.054C372.463 133.6 336.446 177.237 336.446 177.237L292.991 213.023L280.254 201.72L321.185 162.673L347.632 123.67C351.841 115.642 360.924 111.449 369.764 113.454Z" fill="#6C63FF"/>
<g id="Group_4">
<path id="Vector_9" d="M452.289 257.119C453.333 263.705 450.783 269.582 446.592 270.247C442.401 270.912 438.157 266.112 437.112 259.527C436.655 256.644 436.887 253.897 437.643 251.664L433.566 223.703L446.728 222.07L449.35 249.806C450.761 251.696 451.831 254.237 452.289 257.119Z" fill="#FFB6B6"/>
<path id="Vector_10" d="M401.098 114.547C401.098 114.547 421.793 109.915 425.552 121.392C429.312 132.869 451.904 241.728 451.904 241.728L434.694 243.634L421.769 169.054L401.098 114.547Z" fill="#6C63FF"/>
</g>
<path id="Vector_11" d="M390.093 94.9869C401.489 94.9869 410.727 85.7487 410.727 74.3528C410.727 62.9569 401.489 53.7187 390.093 53.7187C378.697 53.7187 369.459 62.9569 369.459 74.3528C369.459 85.7487 378.697 94.9869 390.093 94.9869Z" fill="#FFB6B6"/>
<path id="Vector_12" d="M402.165 91.8731C400.842 91.9374 399.096 91.6854 398.874 90.3795C398.718 89.4582 399.495 88.6641 400.226 88.0823C401.245 87.2712 402.321 86.515 403.197 85.5507C404.073 84.5864 404.748 83.3669 404.764 82.0642C404.781 80.7614 404.005 79.4022 402.759 79.0231C401.512 78.6439 399.957 79.5707 399.939 80.8734C398.737 79.0485 398.577 76.7492 398.514 74.5652C398.478 73.2872 398.461 72.0085 398.465 70.73C398.471 68.9832 398.515 67.2369 398.56 65.4908C397.701 65.4455 390.77 68.0536 389.77 68.0536C388.91 68.0536 382 66.682 382.46 64.7137C382.325 65.9717 375.733 68.2377 375.599 67.5793C375.464 66.9208 374.973 66.2258 374.302 66.2651C373.595 66.3066 373.21 67.0905 372.972 67.7579C372.441 69.248 371.152 71.8233 369.77 71.0536C359.31 65.2285 367.744 63.4142 368.983 61.0453C370.506 58.1333 372.131 55.1036 374.841 53.2459C377.552 51.3882 379.692 49.17 381.827 51.668C387.184 47.7633 392.498 48.7052 398.742 50.9317C404.985 53.1583 409.98 58.6061 411.657 65.0191C412.426 67.9586 414.485 69.2484 412.951 71.8709C414.642 74.139 413.725 72.8557 414.06 75.6651C414.323 77.8817 414.102 80.2213 413.003 82.1641C411.829 84.2396 409.751 85.6836 407.529 86.549C405.307 87.4144 404.923 91.7609 402.562 92.1012" fill="#2F2E41"/>
</g>
<path id="Vector_13" d="M493.564 413.424C495.63 413.553 496.771 410.987 495.208 409.491L495.053 408.872C495.073 408.823 495.094 408.774 495.115 408.724C497.204 403.742 504.284 403.777 506.356 408.766C508.195 413.194 510.535 417.63 511.112 422.312C511.37 424.379 511.254 426.484 510.795 428.512C515.103 419.102 517.37 408.826 517.37 398.491C517.37 395.895 517.228 393.298 516.938 390.709C516.699 388.59 516.369 386.484 515.943 384.398C513.637 373.121 508.644 362.38 501.443 353.409C497.981 351.516 495.094 348.558 493.35 345.012C492.723 343.733 492.233 342.357 492 340.956C492.394 341.008 493.486 335.007 493.188 334.639C493.737 333.806 494.72 333.392 495.32 332.579C498.302 328.535 502.411 329.241 504.556 334.736C509.138 337.049 509.183 340.884 506.371 344.573C504.582 346.92 504.336 350.095 502.767 352.608C502.928 352.814 503.096 353.015 503.258 353.221C506.219 357.019 508.78 361.101 510.939 365.39C510.329 360.624 511.23 354.882 512.765 351.18C514.513 346.963 517.79 343.411 520.676 339.765C524.142 335.386 531.249 337.297 531.86 342.849C531.866 342.902 531.871 342.956 531.877 343.01C531.448 343.252 531.029 343.508 530.618 343.78C528.279 345.327 529.087 348.954 531.859 349.381L531.922 349.391C531.767 350.935 531.502 352.466 531.115 353.97C534.817 368.286 526.825 373.5 515.413 373.735C515.162 373.864 514.916 373.993 514.664 374.116C515.82 377.371 516.744 380.71 517.429 384.095C518.042 387.085 518.468 390.108 518.707 393.143C519.005 396.974 518.979 400.823 518.656 404.647L518.675 404.511C519.495 400.3 521.782 396.366 525.102 393.641C530.047 389.578 537.035 388.082 542.37 384.817C544.938 383.245 548.229 385.276 547.781 388.254L547.759 388.396C546.965 388.719 546.19 389.094 545.441 389.514C545.012 389.755 544.592 390.012 544.182 390.284C541.843 391.831 542.651 395.457 545.423 395.885L545.486 395.895C545.531 395.901 545.57 395.908 545.615 395.914C544.252 399.15 542.353 402.154 539.976 404.744C537.662 417.241 527.72 418.426 517.086 414.787H517.08C515.917 419.851 514.218 424.798 512.035 429.513H494.015C493.951 429.313 493.892 429.106 493.834 428.906C495.501 429.01 497.18 428.913 498.821 428.609C497.484 426.969 496.147 425.315 494.81 423.675C494.777 423.642 494.751 423.61 494.726 423.578C494.047 422.738 493.363 421.905 492.685 421.065L492.684 421.064C492.642 418.487 492.951 415.917 493.564 413.424Z" fill="#F2F2F2"/>
</g>
</svg>
